<mxfile host="app.diagrams.net" modified="2023-06-29T18:47:45.315Z" agent="Mozilla/5.0 (X11; Linux x86_64; rv:108.0) Gecko/20100101 Firefox/108.0" etag="5EmE_DCFBlMvLWBmaJQk" version="21.5.1" type="device">
  <diagram name="Page-1" id="ogbzQqPfx5tiY2P_D9hK">
    <mxGraphModel dx="1194" dy="547" grid="1" gridSize="10" guides="1" tooltips="1" connect="1" arrows="1" fold="1" page="1" pageScale="1" pageWidth="827" pageHeight="1169" math="0" shadow="0">
      <root>
        <mxCell id="0" />
        <mxCell id="1" parent="0" />
        <mxCell id="LBQ9alW-ych77DVsVjmV-1" value="" style="shape=umlLifeline;perimeter=lifelinePerimeter;whiteSpace=wrap;html=1;container=1;dropTarget=0;collapsible=0;recursiveResize=0;outlineConnect=0;portConstraint=eastwest;newEdgeStyle={&quot;edgeStyle&quot;:&quot;elbowEdgeStyle&quot;,&quot;elbow&quot;:&quot;vertical&quot;,&quot;curved&quot;:0,&quot;rounded&quot;:0};participant=umlActor;" parent="1" vertex="1">
          <mxGeometry x="230" y="100" width="20" height="380" as="geometry" />
        </mxCell>
        <mxCell id="LBQ9alW-ych77DVsVjmV-2" value="Sistema" style="shape=umlLifeline;perimeter=lifelinePerimeter;whiteSpace=wrap;html=1;container=1;dropTarget=0;collapsible=0;recursiveResize=0;outlineConnect=0;portConstraint=eastwest;newEdgeStyle={&quot;edgeStyle&quot;:&quot;elbowEdgeStyle&quot;,&quot;elbow&quot;:&quot;vertical&quot;,&quot;curved&quot;:0,&quot;rounded&quot;:0};" parent="1" vertex="1">
          <mxGeometry x="470" y="100" width="100" height="380" as="geometry" />
        </mxCell>
        <mxCell id="LBQ9alW-ych77DVsVjmV-14" value="" style="group" parent="1" vertex="1" connectable="0">
          <mxGeometry x="160" y="160" width="440" height="320" as="geometry" />
        </mxCell>
        <mxCell id="LBQ9alW-ych77DVsVjmV-3" value="LOOP" style="shape=umlFrame;whiteSpace=wrap;html=1;pointerEvents=0;fillColor=#dae8fc;strokeColor=#6c8ebf;" parent="LBQ9alW-ych77DVsVjmV-14" vertex="1">
          <mxGeometry width="440" height="320" as="geometry" />
        </mxCell>
        <mxCell id="LBQ9alW-ych77DVsVjmV-12" value="" style="group" parent="LBQ9alW-ych77DVsVjmV-14" vertex="1" connectable="0">
          <mxGeometry x="10" y="34.59459459459458" width="410" height="207.56756756756758" as="geometry" />
        </mxCell>
        <mxCell id="LBQ9alW-ych77DVsVjmV-4" value="assegnazioneChef(Chef, Evento)" style="html=1;verticalAlign=bottom;endArrow=block;edgeStyle=elbowEdgeStyle;elbow=vertical;curved=0;rounded=0;" parent="LBQ9alW-ych77DVsVjmV-12" edge="1">
          <mxGeometry width="80" relative="1" as="geometry">
            <mxPoint x="70" as="sourcePoint" />
            <mxPoint x="350" as="targetPoint" />
            <Array as="points">
              <mxPoint x="300" />
            </Array>
          </mxGeometry>
        </mxCell>
        <mxCell id="LBQ9alW-ych77DVsVjmV-11" value="" style="group" parent="LBQ9alW-ych77DVsVjmV-12" vertex="1" connectable="0">
          <mxGeometry y="45.402972972972975" width="410" height="194.5945945945946" as="geometry" />
        </mxCell>
        <mxCell id="LBQ9alW-ych77DVsVjmV-5" value="ALT&lt;span style=&quot;white-space: pre;&quot;&gt; &lt;/span&gt;" style="shape=umlFrame;whiteSpace=wrap;html=1;pointerEvents=0;fillColor=#f8cecc;strokeColor=#b85450;" parent="LBQ9alW-ych77DVsVjmV-11" vertex="1">
          <mxGeometry width="410" height="194.5945945945946" as="geometry" />
        </mxCell>
        <mxCell id="LBQ9alW-ych77DVsVjmV-7" value="" style="endArrow=none;endFill=0;endSize=12;html=1;rounded=0;entryX=0.007;entryY=0.648;entryDx=0;entryDy=0;entryPerimeter=0;exitX=1;exitY=0.642;exitDx=0;exitDy=0;exitPerimeter=0;" parent="LBQ9alW-ych77DVsVjmV-11" edge="1" target="LBQ9alW-ych77DVsVjmV-5" source="LBQ9alW-ych77DVsVjmV-5">
          <mxGeometry width="160" relative="1" as="geometry">
            <mxPoint x="350" y="125.40540540540542" as="sourcePoint" />
            <mxPoint x="70" y="125.40540540540542" as="targetPoint" />
            <Array as="points">
              <mxPoint x="180" y="125.40540540540542" />
            </Array>
          </mxGeometry>
        </mxCell>
        <mxCell id="LBQ9alW-ych77DVsVjmV-8" value="operazione completata" style="html=1;verticalAlign=bottom;endArrow=none;edgeStyle=elbowEdgeStyle;elbow=vertical;curved=0;rounded=0;endFill=0;startArrow=block;startFill=1;" parent="LBQ9alW-ych77DVsVjmV-11" edge="1">
          <mxGeometry width="80" relative="1" as="geometry">
            <mxPoint x="70" y="30.270270270270274" as="sourcePoint" />
            <mxPoint x="350" y="30.270270270270274" as="targetPoint" />
            <Array as="points">
              <mxPoint x="300" y="30.270270270270274" />
            </Array>
          </mxGeometry>
        </mxCell>
        <mxCell id="LBQ9alW-ych77DVsVjmV-9" value="chef già impegnato" style="html=1;verticalAlign=bottom;endArrow=none;edgeStyle=elbowEdgeStyle;elbow=vertical;curved=0;rounded=0;endFill=0;startArrow=block;startFill=1;" parent="LBQ9alW-ych77DVsVjmV-11" edge="1">
          <mxGeometry width="80" relative="1" as="geometry">
            <mxPoint x="70" y="90.81081081081082" as="sourcePoint" />
            <mxPoint x="350" y="90.81081081081082" as="targetPoint" />
            <Array as="points">
              <mxPoint x="300" y="90.81081081081082" />
            </Array>
          </mxGeometry>
        </mxCell>
        <mxCell id="LBQ9alW-ych77DVsVjmV-10" value="l&#39;evento indicato è &quot;in corso&quot;" style="html=1;verticalAlign=bottom;endArrow=none;edgeStyle=elbowEdgeStyle;elbow=vertical;curved=0;rounded=0;endFill=0;startArrow=block;startFill=1;" parent="LBQ9alW-ych77DVsVjmV-11" edge="1">
          <mxGeometry width="80" relative="1" as="geometry">
            <mxPoint x="70" y="160" as="sourcePoint" />
            <mxPoint x="350" y="160" as="targetPoint" />
            <Array as="points">
              <mxPoint x="310" y="160" />
            </Array>
          </mxGeometry>
        </mxCell>
        <mxCell id="LBQ9alW-ych77DVsVjmV-6" value="" style="endArrow=none;endFill=0;endSize=12;html=1;rounded=0;exitX=0.998;exitY=0.293;exitDx=0;exitDy=0;exitPerimeter=0;" parent="1" source="LBQ9alW-ych77DVsVjmV-5" edge="1">
          <mxGeometry width="160" relative="1" as="geometry">
            <mxPoint x="330" y="304.86243243243246" as="sourcePoint" />
            <mxPoint x="170" y="296" as="targetPoint" />
            <Array as="points">
              <mxPoint x="350" y="296.21378378378375" />
            </Array>
          </mxGeometry>
        </mxCell>
      </root>
    </mxGraphModel>
  </diagram>
</mxfile>
